<mxfile host="app.diagrams.net" modified="2021-03-25T16:47:29.640Z" agent="5.0 (Windows NT 10.0; Win64; x64) AppleWebKit/537.36 (KHTML, like Gecko) Chrome/89.0.4389.90 Safari/537.36" etag="VAsiOAUmjRasOLi99PPF" version="14.5.1" type="github">
  <diagram id="Sqsg5uLiVBnWR7xdXs7N" name="Page-1">
    <mxGraphModel dx="1038" dy="580" grid="1" gridSize="10" guides="1" tooltips="1" connect="1" arrows="1" fold="1" page="1" pageScale="1" pageWidth="827" pageHeight="1169" math="0" shadow="0">
      <root>
        <mxCell id="0" />
        <mxCell id="1" parent="0" />
        <mxCell id="k9XkC5c0XQXcZgpCj6C3-2" value="Start" style="rounded=1;whiteSpace=wrap;html=1;fontSize=20;" vertex="1" parent="1">
          <mxGeometry x="320" y="40" width="120" height="60" as="geometry" />
        </mxCell>
        <mxCell id="k9XkC5c0XQXcZgpCj6C3-3" value="" style="endArrow=classic;html=1;fontSize=20;verticalAlign=bottom;" edge="1" parent="1">
          <mxGeometry width="50" height="50" relative="1" as="geometry">
            <mxPoint x="379.5" y="100" as="sourcePoint" />
            <mxPoint x="379.5" y="170" as="targetPoint" />
          </mxGeometry>
        </mxCell>
        <mxCell id="k9XkC5c0XQXcZgpCj6C3-4" value="&lt;br&gt;Year divisible&lt;br&gt;by 4" style="rhombus;whiteSpace=wrap;html=1;fontSize=15;" vertex="1" parent="1">
          <mxGeometry x="327.5" y="170" width="105" height="100" as="geometry" />
        </mxCell>
        <mxCell id="k9XkC5c0XQXcZgpCj6C3-7" value="" style="endArrow=none;html=1;fontSize=15;" edge="1" parent="1">
          <mxGeometry width="50" height="50" relative="1" as="geometry">
            <mxPoint x="432.5" y="219.5" as="sourcePoint" />
            <mxPoint x="503" y="220" as="targetPoint" />
          </mxGeometry>
        </mxCell>
        <mxCell id="k9XkC5c0XQXcZgpCj6C3-8" value="" style="endArrow=none;html=1;fontSize=15;" edge="1" parent="1">
          <mxGeometry width="50" height="50" relative="1" as="geometry">
            <mxPoint x="197.5" y="219.5" as="sourcePoint" />
            <mxPoint x="327.5" y="219.5" as="targetPoint" />
          </mxGeometry>
        </mxCell>
        <mxCell id="k9XkC5c0XQXcZgpCj6C3-9" value="" style="endArrow=classic;html=1;fontSize=15;" edge="1" parent="1">
          <mxGeometry width="50" height="50" relative="1" as="geometry">
            <mxPoint x="200" y="220" as="sourcePoint" />
            <mxPoint x="200" y="290" as="targetPoint" />
          </mxGeometry>
        </mxCell>
        <mxCell id="k9XkC5c0XQXcZgpCj6C3-10" value="Not Leap" style="rounded=0;whiteSpace=wrap;html=1;fontSize=15;labelBackgroundColor=#FF6666;labelBorderColor=#FF3333;" vertex="1" parent="1">
          <mxGeometry x="150" y="290" width="100" height="50" as="geometry" />
        </mxCell>
        <mxCell id="k9XkC5c0XQXcZgpCj6C3-11" value="" style="endArrow=classic;html=1;fontSize=15;" edge="1" parent="1">
          <mxGeometry width="50" height="50" relative="1" as="geometry">
            <mxPoint x="500" y="220" as="sourcePoint" />
            <mxPoint x="500" y="280" as="targetPoint" />
          </mxGeometry>
        </mxCell>
        <mxCell id="k9XkC5c0XQXcZgpCj6C3-12" value="&lt;font style=&quot;font-size: 12px&quot;&gt;Year Divisible&lt;br&gt;&amp;nbsp;by 100&lt;/font&gt;" style="rhombus;whiteSpace=wrap;html=1;labelBackgroundColor=none;fontSize=15;" vertex="1" parent="1">
          <mxGeometry x="450" y="280" width="100" height="90" as="geometry" />
        </mxCell>
        <mxCell id="k9XkC5c0XQXcZgpCj6C3-14" value="" style="endArrow=none;html=1;fontSize=15;" edge="1" parent="1">
          <mxGeometry width="50" height="50" relative="1" as="geometry">
            <mxPoint x="380" y="324.5" as="sourcePoint" />
            <mxPoint x="450" y="324.5" as="targetPoint" />
          </mxGeometry>
        </mxCell>
        <mxCell id="k9XkC5c0XQXcZgpCj6C3-15" value="" style="endArrow=classic;html=1;fontSize=15;" edge="1" parent="1">
          <mxGeometry width="50" height="50" relative="1" as="geometry">
            <mxPoint x="379.5" y="320" as="sourcePoint" />
            <mxPoint x="379.5" y="390" as="targetPoint" />
          </mxGeometry>
        </mxCell>
        <mxCell id="k9XkC5c0XQXcZgpCj6C3-16" value="Leap Year" style="rounded=0;whiteSpace=wrap;html=1;labelBackgroundColor=#33FF33;fontSize=15;" vertex="1" parent="1">
          <mxGeometry x="327.5" y="380" width="102.5" height="50" as="geometry" />
        </mxCell>
        <mxCell id="k9XkC5c0XQXcZgpCj6C3-17" value="" style="endArrow=none;html=1;fontSize=15;" edge="1" parent="1">
          <mxGeometry width="50" height="50" relative="1" as="geometry">
            <mxPoint x="550" y="324.5" as="sourcePoint" />
            <mxPoint x="690" y="325" as="targetPoint" />
          </mxGeometry>
        </mxCell>
        <mxCell id="k9XkC5c0XQXcZgpCj6C3-18" value="" style="endArrow=classic;html=1;fontSize=15;" edge="1" parent="1" target="k9XkC5c0XQXcZgpCj6C3-19">
          <mxGeometry width="50" height="50" relative="1" as="geometry">
            <mxPoint x="688" y="320" as="sourcePoint" />
            <mxPoint x="690" y="390" as="targetPoint" />
          </mxGeometry>
        </mxCell>
        <mxCell id="k9XkC5c0XQXcZgpCj6C3-19" value="Year divisible by 400" style="rhombus;whiteSpace=wrap;html=1;" vertex="1" parent="1">
          <mxGeometry x="630" y="360" width="110" height="110" as="geometry" />
        </mxCell>
        <mxCell id="k9XkC5c0XQXcZgpCj6C3-20" value="" style="endArrow=none;html=1;fontSize=15;" edge="1" parent="1">
          <mxGeometry width="50" height="50" relative="1" as="geometry">
            <mxPoint x="500" y="414.5" as="sourcePoint" />
            <mxPoint x="630" y="414.5" as="targetPoint" />
          </mxGeometry>
        </mxCell>
        <mxCell id="k9XkC5c0XQXcZgpCj6C3-21" value="" style="endArrow=none;html=1;fontSize=15;" edge="1" parent="1">
          <mxGeometry width="50" height="50" relative="1" as="geometry">
            <mxPoint x="740" y="414.5" as="sourcePoint" />
            <mxPoint x="870" y="414.5" as="targetPoint" />
          </mxGeometry>
        </mxCell>
        <mxCell id="k9XkC5c0XQXcZgpCj6C3-22" value="" style="endArrow=classic;html=1;fontSize=15;" edge="1" parent="1">
          <mxGeometry width="50" height="50" relative="1" as="geometry">
            <mxPoint x="499.5" y="410" as="sourcePoint" />
            <mxPoint x="499.5" y="480" as="targetPoint" />
          </mxGeometry>
        </mxCell>
        <mxCell id="k9XkC5c0XQXcZgpCj6C3-23" value="" style="endArrow=classic;html=1;fontSize=15;" edge="1" parent="1">
          <mxGeometry width="50" height="50" relative="1" as="geometry">
            <mxPoint x="870" y="410" as="sourcePoint" />
            <mxPoint x="870" y="480" as="targetPoint" />
          </mxGeometry>
        </mxCell>
        <mxCell id="k9XkC5c0XQXcZgpCj6C3-24" value="Leap Year" style="rounded=0;whiteSpace=wrap;html=1;labelBackgroundColor=#33FF33;fontSize=15;" vertex="1" parent="1">
          <mxGeometry x="827" y="480" width="102.5" height="50" as="geometry" />
        </mxCell>
        <mxCell id="k9XkC5c0XQXcZgpCj6C3-25" value="Not Leap" style="rounded=0;whiteSpace=wrap;html=1;fontSize=15;labelBackgroundColor=#FF6666;labelBorderColor=#FF3333;" vertex="1" parent="1">
          <mxGeometry x="450" y="480" width="100" height="50" as="geometry" />
        </mxCell>
        <mxCell id="k9XkC5c0XQXcZgpCj6C3-28" value="Yes" style="text;html=1;strokeColor=none;fillColor=none;align=center;verticalAlign=middle;whiteSpace=wrap;rounded=0;labelBackgroundColor=#33FF33;fontSize=15;" vertex="1" parent="1">
          <mxGeometry x="450" y="200" width="40" height="20" as="geometry" />
        </mxCell>
        <mxCell id="k9XkC5c0XQXcZgpCj6C3-29" value="Yes" style="text;html=1;strokeColor=none;fillColor=none;align=center;verticalAlign=middle;whiteSpace=wrap;rounded=0;labelBackgroundColor=#33FF33;fontSize=15;" vertex="1" parent="1">
          <mxGeometry x="580" y="305" width="40" height="20" as="geometry" />
        </mxCell>
        <mxCell id="k9XkC5c0XQXcZgpCj6C3-30" value="Yes" style="text;html=1;strokeColor=none;fillColor=none;align=center;verticalAlign=middle;whiteSpace=wrap;rounded=0;labelBackgroundColor=#33FF33;fontSize=15;" vertex="1" parent="1">
          <mxGeometry x="770" y="395" width="40" height="20" as="geometry" />
        </mxCell>
        <mxCell id="k9XkC5c0XQXcZgpCj6C3-31" value="No" style="text;html=1;strokeColor=none;fillColor=none;align=center;verticalAlign=middle;whiteSpace=wrap;rounded=0;labelBackgroundColor=#FF3333;fontSize=15;" vertex="1" parent="1">
          <mxGeometry x="250" y="200" width="40" height="20" as="geometry" />
        </mxCell>
        <mxCell id="k9XkC5c0XQXcZgpCj6C3-32" value="No" style="text;html=1;strokeColor=none;fillColor=none;align=center;verticalAlign=middle;whiteSpace=wrap;rounded=0;labelBackgroundColor=#FF3333;fontSize=15;" vertex="1" parent="1">
          <mxGeometry x="400" y="305" width="40" height="20" as="geometry" />
        </mxCell>
        <mxCell id="k9XkC5c0XQXcZgpCj6C3-33" value="No" style="text;html=1;strokeColor=none;fillColor=none;align=center;verticalAlign=middle;whiteSpace=wrap;rounded=0;labelBackgroundColor=#FF3333;fontSize=15;" vertex="1" parent="1">
          <mxGeometry x="550" y="395" width="40" height="20" as="geometry" />
        </mxCell>
      </root>
    </mxGraphModel>
  </diagram>
</mxfile>
